<svg width="229" height="221" viewBox="0 0 229 221" fill="none" xmlns="http://www.w3.org/2000/svg">
<path d="M19.6291 236.9V237.485L12.5073 258.538L140.699 263.217L285.507 251.52L277.436 122.86L276.012 126.953L272.688 135.726L269.365 138.065L266.041 139.819L264.142 136.895L261.293 128.708L253.222 80.1677L244.201 28.7034L238.979 8.23465L234.706 1.2168L230.907 2.38644L226.16 12.3284L220.462 39.2302L208.118 119.351L205.269 128.708L202.895 129.878L198.622 126.953L194.349 115.257L189.126 104.73L186.278 101.221H183.429L177.257 108.239L168.711 125.199L164.438 129.878L161.114 128.708L158.74 124.029L154.942 108.239L147.346 74.9043L140.699 63.2079L136.426 60.8686L132.627 62.0382L128.829 64.9623L124.556 76.0739L121.707 85.4311L103.666 157.949L100.342 162.043L96.5438 160.873L87.9978 151.516L69.956 131.047L62.8343 129.878L56.6621 134.556L42.4186 163.212L20.5786 229.297L19.6291 236.9Z" fill="url(#paint0_linear_9_1826)"/>
<path d="M20.5073 231.217C20.5073 231.217 47.8323 129.656 64.0415 129.656C78.7107 129.656 90.7779 162.604 100.334 161.856C109.89 161.107 119.879 56.0951 136.441 60.765C153.003 65.4349 154.279 127.409 161.986 129.656C169.692 131.902 173.391 108.688 182.639 101.949C191.887 95.2093 194.661 129.656 203.292 129.656C211.923 129.656 219.25 2.37331 232.973 1.22393C246.696 0.0745411 256.621 138.267 265.56 139.016C274.5 139.765 276.507 122.642 276.507 122.642" stroke="#00FF38" stroke-width="2"/>
<path d="M20.5073 231.217C20.5073 231.217 47.8323 129.656 64.0415 129.656C78.7107 129.656 90.7779 162.604 100.334 161.856C109.89 161.107 119.879 56.0951 136.441 60.765C153.003 65.4349 154.279 127.409 161.986 129.656C169.692 131.902 173.391 108.688 182.639 101.949C191.887 95.2093 194.661 129.656 203.292 129.656C211.923 129.656 219.25 2.37331 232.973 1.22393C246.696 0.0745411 256.621 138.267 265.56 139.016C274.5 139.765 276.507 122.642 276.507 122.642" stroke="#00FF38" stroke-width="2"/>
<defs>
<linearGradient id="paint0_linear_9_1826" x1="148.77" y1="-383.011" x2="155.973" y2="209.968" gradientUnits="userSpaceOnUse">
<stop stop-color="#00FF38"/>
<stop offset="1" stop-color="#070E19"/>
</linearGradient>
</defs>
</svg>
