<svg width="254" height="229" viewBox="0 0 254 229" fill="none" xmlns="http://www.w3.org/2000/svg">
<path d="M8.08707 250.376V250.961L0.965332 272.014L129.157 276.693L273.965 264.996L265.894 136.336L264.47 140.429L261.146 149.202L257.823 151.541L254.499 153.296L252.6 150.371L249.751 142.184L241.68 93.6438L232.659 42.1795L227.437 21.7107L223.164 14.6929L219.365 15.8625L214.618 25.8045L208.92 52.7063L196.576 132.827L193.727 142.184L191.353 143.354L187.08 140.429L182.807 128.733L177.584 118.206L174.736 114.697H171.887L165.715 121.715L157.169 138.675L152.896 143.354L149.572 142.184L147.198 137.505L143.4 121.715L135.804 88.3804L129.157 76.6839L124.884 74.3447L121.085 75.5143L117.287 78.4384L113.014 89.55L110.165 98.9072L92.1236 171.425L88.8001 175.519L85.0019 174.349L76.4558 164.992L58.414 144.523L51.2923 143.354L45.1201 148.032L30.8766 176.688L9.03664 242.773L8.08707 250.376Z" fill="url(#paint0_linear_9_1772)"/>
<path d="M8.96533 243.693C8.96533 243.693 36.2903 142.132 52.4995 142.132C67.1687 142.132 79.2359 175.08 88.7919 174.332C98.3479 173.583 108.337 68.5712 124.899 73.2411C141.461 77.911 142.737 139.885 150.444 142.132C158.15 144.378 161.849 121.164 171.097 114.425C180.345 107.685 183.119 142.132 191.75 142.132C200.381 142.132 207.708 14.8494 221.431 13.7C235.154 12.5506 245.079 150.743 254.018 151.492C262.958 152.241 264.965 135.118 264.965 135.118" stroke="#B92323" stroke-width="2"/>
<defs>
<linearGradient id="paint0_linear_9_1772" x1="137.228" y1="-369.535" x2="144.431" y2="223.444" gradientUnits="userSpaceOnUse">
<stop stop-color="#FF0000"/>
<stop offset="1" stop-color="#070E19"/>
</linearGradient>
</defs>
</svg>
