<svg width="238" height="182" viewBox="0 0 238 182" fill="none" xmlns="http://www.w3.org/2000/svg">
<path d="M7.12174 247.683V248.268L0 269.321L128.191 274L273 262.304L264.929 133.643L263.504 137.737L260.181 146.509L256.857 148.848L253.534 150.603L251.635 147.679L248.786 139.491L240.715 90.9509L231.694 39.4866L226.471 19.0179L222.198 12L218.4 13.1696L213.652 23.1116L207.955 50.0134L195.61 130.134L192.762 139.491L190.388 140.661L186.115 137.737L181.842 126.04L176.619 115.513L173.77 112.004H170.922L164.75 119.022L156.203 135.982L151.93 140.661L148.607 139.491L146.233 134.812L142.435 119.022L134.838 85.6875L128.191 73.9911L123.918 71.6518L120.12 72.8214L116.322 75.7455L112.049 86.8571L109.2 96.2143L91.1583 168.732L87.8348 172.826L84.0365 171.656L75.4904 162.299L57.4487 141.83L50.327 140.661L44.1548 145.339L29.9113 173.996L8.0713 240.08L7.12174 247.683Z" fill="url(#paint0_linear_9_1787)"/>
<path d="M8 240.267C8 240.267 35.8669 140.439 52.0762 140.439C66.7453 140.439 78.8126 173.388 88.3686 172.639C97.9246 171.89 107.914 66.8783 124.475 71.5482C141.037 76.2182 142.314 138.192 150.02 140.439C157.727 142.685 161.426 119.472 170.673 112.732C179.921 105.993 182.696 140.439 191.327 140.439C199.958 140.439 207.285 13.1565 221.008 12.0071C234.731 10.8577 244.655 149.05 253.595 149.799C262.534 150.548 264.542 133.425 264.542 133.425" stroke="#A951DB" stroke-width="2"/>
<defs>
<linearGradient id="paint0_linear_9_1787" x1="136.263" y1="-372.228" x2="143.466" y2="220.751" gradientUnits="userSpaceOnUse">
<stop stop-color="#A951DB"/>
<stop offset="1" stop-color="#070E19"/>
</linearGradient>
</defs>
</svg>
