<svg width="40" height="40" viewBox="0 0 40 40" fill="none" xmlns="http://www.w3.org/2000/svg">
<path d="M17.5 10C15.0277 10 12.611 10.7331 10.5554 12.1066C8.49976 13.4801 6.89761 15.4324 5.95151 17.7165C5.00542 20.0005 4.75787 22.5139 5.24019 24.9386C5.7225 27.3634 6.91301 29.5907 8.66117 31.3388C10.4093 33.087 12.6366 34.2775 15.0614 34.7598C17.4861 35.2421 19.9995 34.9946 22.2835 34.0485C24.5676 33.1024 26.5199 31.5002 27.8934 29.4446C29.2669 27.389 30 24.9723 30 22.5H17.5V10Z" stroke="#8893A6" stroke-width="1.5" stroke-linecap="round" stroke-linejoin="round"/>
<path d="M22.5 17.5H35C35 14.1848 33.683 11.0054 31.3388 8.66117C28.9946 6.31696 25.8152 5 22.5 5V17.5Z" stroke="#8893A6" stroke-width="1.5" stroke-linecap="round" stroke-linejoin="round"/>
</svg>
