<svg width="36" height="37" viewBox="0 0 36 37" fill="none" xmlns="http://www.w3.org/2000/svg">
<path d="M22.6176 12.6667V5.375C22.6176 4.21468 22.1296 3.10188 21.2609 2.28141C20.3921 1.46094 19.2139 1 17.9853 1H5.63235C4.40378 1 3.22552 1.46094 2.35679 2.28141C1.48805 3.10188 1 4.21468 1 5.375V31.625C1 32.7853 1.48805 33.8981 2.35679 34.7186C3.22552 35.5391 4.40378 36 5.63235 36H17.9853C19.2139 36 20.3921 35.5391 21.2609 34.7186C22.1296 33.8981 22.6176 32.7853 22.6176 31.625V24.3333M28.7941 12.6667L36 18.3229M36 18.3229L28.7941 24.1563M36 18.3229H12.3235" stroke="#8893A6" stroke-width="2" stroke-linecap="round" stroke-linejoin="round"/>
</svg>
