<svg width="40" height="40" viewBox="0 0 40 40"   fill="none" xmlns="http://www.w3.org/2000/svg">
<path d="M12.5 4H28.75M12.5 4C12.5 4.66304 12.2366 5.29893 11.7678 5.76777C11.2989 6.23661 10.663 6.5 10 6.5C9.33696 6.5 8.70107 6.23661 8.23223 5.76777C7.76339 5.29893 7.5 4.66304 7.5 4M12.5 4C12.5 3.33696 12.2366 2.70107 11.7678 2.23223C11.2989 1.76339 10.663 1.5 10 1.5C9.33696 1.5 8.70107 1.76339 8.23223 2.23223C7.76339 2.70107 7.5 3.33696 7.5 4M7.5 4H1.25M12.5 24H28.75M12.5 24C12.5 24.663 12.2366 25.2989 11.7678 25.7678C11.2989 26.2366 10.663 26.5 10 26.5C9.33696 26.5 8.70107 26.2366 8.23223 25.7678C7.76339 25.2989 7.5 24.663 7.5 24M12.5 24C12.5 23.337 12.2366 22.7011 11.7678 22.2322C11.2989 21.7634 10.663 21.5 10 21.5C9.33696 21.5 8.70107 21.7634 8.23223 22.2322C7.76339 22.7011 7.5 23.337 7.5 24M7.5 24H1.25M22.5 14H28.75M22.5 14C22.5 14.663 22.2366 15.2989 21.7678 15.7678C21.2989 16.2366 20.663 16.5 20 16.5C19.337 16.5 18.7011 16.2366 18.2322 15.7678C17.7634 15.2989 17.5 14.663 17.5 14M22.5 14C22.5 13.337 22.2366 12.7011 21.7678 12.2322C21.2989 11.7634 20.663 11.5 20 11.5C19.337 11.5 18.7011 11.7634 18.2322 12.2322C17.7634 12.7011 17.5 13.337 17.5 14M17.5 14H1.25" stroke="#8893A6" stroke-width="1.5" stroke-linecap="round" stroke-linejoin="round"/>
</svg>
