<svg width="40" height="40" viewBox="0 0 40 40" fill="none" xmlns="http://www.w3.org/2000/svg">
<path d="M25.4316 20.8683C26.2112 20.3359 27.1257 20.0351 28.0692 20.0007C29.0126 19.9663 29.9466 20.1998 30.7629 20.674C31.5793 21.1483 32.2447 21.844 32.6821 22.6806C33.1196 23.5173 33.3112 24.4607 33.2349 25.4017C31.2352 26.1006 29.1112 26.3725 26.9999 26.2C26.9934 24.311 26.4494 22.4613 25.4316 20.87C24.5281 19.453 23.2818 18.2867 21.8079 17.4792C20.3341 16.6716 18.6804 16.2489 16.9999 16.25C15.3196 16.2491 13.6663 16.672 12.1928 17.4796C10.7193 18.2871 9.47323 19.4532 8.56989 20.87M26.9982 26.1983L26.9999 26.25C26.9999 26.625 26.9799 26.995 26.9382 27.36C23.9138 29.0952 20.4867 30.0056 16.9999 30C13.3832 30 9.98823 29.04 7.06156 27.36C7.01871 26.9743 6.99812 26.5864 6.99989 26.1983M6.99989 26.1983C4.88928 26.3771 2.76641 26.1061 0.768227 25.4033C0.692145 24.4626 0.883884 23.5195 1.32127 22.6832C1.75866 21.8468 2.42384 21.1513 3.2399 20.6771C4.05595 20.203 4.98955 19.9694 5.93276 20.0036C6.87596 20.0377 7.79024 20.3381 8.56989 20.87M6.99989 26.1983C7.00588 24.3095 7.5526 22.4614 8.56989 20.87M21.9999 6.25C21.9999 7.57608 21.4731 8.84785 20.5354 9.78553C19.5977 10.7232 18.326 11.25 16.9999 11.25C15.6738 11.25 14.402 10.7232 13.4644 9.78553C12.5267 8.84785 11.9999 7.57608 11.9999 6.25C11.9999 4.92392 12.5267 3.65215 13.4644 2.71447C14.402 1.77678 15.6738 1.25 16.9999 1.25C18.326 1.25 19.5977 1.77678 20.5354 2.71447C21.4731 3.65215 21.9999 4.92392 21.9999 6.25ZM31.9999 11.25C31.9999 11.7425 31.9029 12.2301 31.7144 12.6851C31.526 13.14 31.2498 13.5534 30.9015 13.9016C30.5533 14.2499 30.1399 14.5261 29.685 14.7145C29.23 14.903 28.7423 15 28.2499 15C27.7574 15 27.2698 14.903 26.8148 14.7145C26.3599 14.5261 25.9465 14.2499 25.5982 13.9016C25.25 13.5534 24.9738 13.14 24.7853 12.6851C24.5969 12.2301 24.4999 11.7425 24.4999 11.25C24.4999 10.2554 24.895 9.30161 25.5982 8.59835C26.3015 7.89509 27.2553 7.5 28.2499 7.5C29.2445 7.5 30.1983 7.89509 30.9015 8.59835C31.6048 9.30161 31.9999 10.2554 31.9999 11.25ZM9.49989 11.25C9.49989 11.7425 9.4029 12.2301 9.21444 12.6851C9.02599 13.14 8.74976 13.5534 8.40154 13.9016C8.05332 14.2499 7.63993 14.5261 7.18496 14.7145C6.72999 14.903 6.24235 15 5.74989 15C5.25744 15 4.7698 14.903 4.31483 14.7145C3.85986 14.5261 3.44646 14.2499 3.09824 13.9016C2.75002 13.5534 2.4738 13.14 2.28535 12.6851C2.09689 12.2301 1.99989 11.7425 1.99989 11.25C1.99989 10.2554 2.39498 9.30161 3.09824 8.59835C3.8015 7.89509 4.75533 7.5 5.74989 7.5C6.74446 7.5 7.69828 7.89509 8.40154 8.59835C9.10481 9.30161 9.49989 10.2554 9.49989 11.25Z" stroke="#8893A6" stroke-width="1.5" stroke-linecap="round" stroke-linejoin="round"/>
</svg>
