<svg width="34" height="34" viewBox="0 0 34 34" fill="none" xmlns="http://www.w3.org/2000/svg">
<circle cx="17" cy="17" r="17" fill="#808080"/>
<path d="M20.75 11C20.75 11.9946 20.3549 12.9484 19.6516 13.6517C18.9484 14.3549 17.9945 14.75 17 14.75C16.0054 14.75 15.0516 14.3549 14.3483 13.6517C13.6451 12.9484 13.25 11.9946 13.25 11C13.25 10.0054 13.6451 9.05161 14.3483 8.34835C15.0516 7.64509 16.0054 7.25 17 7.25C17.9945 7.25 18.9484 7.64509 19.6516 8.34835C20.3549 9.05161 20.75 10.0054 20.75 11ZM9.50098 25.118C9.53311 23.1504 10.3373 21.2742 11.7402 19.894C13.143 18.5139 15.0321 17.7405 17 17.7405C18.9679 17.7405 20.857 18.5139 22.2598 19.894C23.6626 21.2742 24.4668 23.1504 24.499 25.118C22.1464 26.1968 19.5881 26.7535 17 26.75C14.324 26.75 11.784 26.166 9.50098 25.118Z" stroke="black" stroke-width="1.5" stroke-linecap="round" stroke-linejoin="round"/>
</svg>
